<?xml version="1.0" standalone="no"?>
<!DOCTYPE svg PUBLIC "-//W3C//DTD SVG 20010904//EN"
 "http://www.w3.org/TR/2001/REC-SVG-20010904/DTD/svg10.dtd">
<svg version="1.0" xmlns="http://www.w3.org/2000/svg"
 width="500.000000pt" height="500.000000pt" viewBox="0 0 500.000000 500.000000"
 preserveAspectRatio="xMidYMid meet">
<metadata>
Created by potrace 1.11, written by Peter Selinger 2001-2013
</metadata>
<g transform="translate(0.000000,500.000000) scale(0.100000,-0.100000)"
fill="#000000" stroke="none">
<path d="M920 4473 c-224 -15 -408 -56 -528 -117 -86 -44 -216 -140 -315 -235
-72 -69 -78 -77 -75 -110 2 -28 9 -39 31 -49 42 -20 195 -26 342 -13 230 20
882 45 1160 45 173 -1 382 -8 582 -22 465 -33 647 -27 676 20 15 23 -27 80
-126 174 -180 169 -349 249 -614 290 -87 13 -202 17 -593 19 -267 1 -510 1
-540 -2z"/>
<path d="M895 3881 c-100 -10 -176 -25 -288 -59 -97 -28 -128 -54 -108 -90 16
-31 36 -33 98 -11 160 56 441 85 588 61 67 -11 81 -8 96 20 18 33 -11 64 -68
71 -93 12 -239 15 -318 8z"/>
<path d="M1566 3860 c-95 -37 -166 -140 -166 -240 0 -101 72 -204 168 -240 66
-25 117 -25 185 0 94 35 167 139 167 240 0 101 -73 205 -167 240 -67 25 -123
25 -187 0z"/>
<path d="M1962 3833 c-18 -7 -33 -39 -26 -57 3 -8 48 -36 101 -61 76 -37 109
-61 169 -121 41 -41 77 -74 80 -74 14 0 42 21 48 36 17 44 -117 175 -239 234
-87 42 -113 51 -133 43z"/>
<path d="M753 3562 c-264 -94 -286 -456 -35 -579 48 -24 70 -28 137 -28 67 0
89 4 137 28 65 32 121 90 151 156 30 65 30 187 0 252 -67 148 -241 224 -390
171z"/>
<path d="M2016 3424 c-70 -22 -149 -103 -170 -174 -9 -30 -16 -68 -16 -85 0
-142 133 -275 275 -275 142 0 275 133 275 275 0 110 -87 229 -190 259 -65 19
-110 19 -174 0z"/>
<path d="M2523 3208 c7 -18 119 -297 248 -620 l234 -588 601 0 601 0 173 438
c96 240 206 519 246 620 l72 182 -1094 0 -1094 0 13 -32z"/>
<path d="M1480 3010 c-11 -11 -20 -25 -20 -30 0 -6 29 -39 65 -75 44 -45 75
-88 100 -139 19 -41 42 -77 50 -80 20 -7 44 3 55 25 24 44 -77 217 -168 286
-51 39 -56 39 -82 13z"/>
<path d="M943 2625 c-35 -7 -86 -26 -113 -41 -50 -27 -130 -104 -130 -124 0
-13 37 -50 49 -50 6 0 30 18 56 40 25 22 64 44 88 50 23 6 64 18 91 26 59 17
104 18 142 4 50 -19 97 18 74 60 -20 38 -160 57 -257 35z"/>
<path d="M1553 2422 c-95 -34 -144 -78 -194 -172 -19 -37 -23 -60 -23 -130 0
-73 4 -92 27 -137 34 -66 84 -116 150 -150 45 -23 64 -27 137 -27 73 0 92 4
137 27 29 15 68 43 88 62 19 20 47 59 62 88 23 45 27 64 27 137 0 73 -4 92
-27 137 -75 144 -242 216 -384 165z"/>
<path d="M1064 2036 c-17 -13 -19 -26 -18 -108 2 -148 52 -299 140 -419 38
-52 57 -63 84 -49 35 19 32 41 -19 119 -70 108 -103 210 -109 339 -4 90 -7
104 -25 117 -26 18 -28 18 -53 1z"/>
<path d="M1620 1700 c-16 -16 -20 -33 -20 -79 0 -106 -38 -248 -99 -368 -32
-64 -32 -86 0 -104 33 -17 59 8 101 97 47 100 83 237 92 351 7 74 5 84 -13
102 -26 26 -36 26 -61 1z"/>
</g>
</svg>
